<?xml version="1.0" encoding="UTF-8" standalone="no"?>
<svg
   version="1.0"
   width="512.000000pt"
   height="512.000000pt"
   viewBox="0 0 512.000000 512.000000"
   preserveAspectRatio="xMidYMid meet"
   id="svg23"
   sodipodi:docname="user.svg"
   inkscape:version="1.1.2 (b8e25be833, 2022-02-05)"
   xmlns:inkscape="http://www.inkscape.org/namespaces/inkscape"
   xmlns:sodipodi="http://sodipodi.sourceforge.net/DTD/sodipodi-0.dtd"
   xmlns="http://www.w3.org/2000/svg"
   xmlns:svg="http://www.w3.org/2000/svg">
  <defs
     id="defs27" />
  <sodipodi:namedview
     id="namedview25"
     pagecolor="#ffffff"
     bordercolor="#666666"
     borderopacity="1.0"
     inkscape:pageshadow="2"
     inkscape:pageopacity="0.0"
     inkscape:pagecheckerboard="0"
     inkscape:document-units="pt"
     showgrid="false"
     inkscape:zoom="1.1835938"
     inkscape:cx="168.13201"
     inkscape:cy="341.33333"
     inkscape:window-width="1920"
     inkscape:window-height="1017"
     inkscape:window-x="-8"
     inkscape:window-y="-8"
     inkscape:window-maximized="1"
     inkscape:current-layer="svg23" />
  <g
     transform="translate(0.000000,512.000000) scale(0.100000,-0.100000)"
     fill="#000000"
     stroke="none"
     id="g21">
    <path
       d="M2380 5114 c-19 -2 -78 -9 -130 -14 -330 -36 -695 -160 -990 -336 -375 -224 -680 -529 -904 -904 -175 -292 -291 -632 -338 -990 -16 -123 -16 -497 0 -620 82 -623 356 -1150 820 -1581 256 -239 575 -425 922 -539 274 -91 491 -124 800 -124 228 0 329 9 530 50 689 141 1304 583 1674 1204 175 292 291 632 338 990 16 123 16 497 0 620 -47 358 -163 698 -338 990 -224 375 -529 680 -904 904 -289 173 -634 291 -980 336 -88 12 -438 21 -500 14z m385 -304 c583 -54 1146 -347 1517 -790 487 -581 652 -1337 452 -2067 -77 -281 -213 -550 -398 -785 -34 -43 -63 -78 -66 -78 -3 0 -19 43 -35 96 -85 284 -283 589 -512 790 -144 126 -341 247 -518 319 l-40 16 35 26 c63 47 216 208 253 266 142 221 202 460 177 704 -37 366 -251 681 -575 850 -674 350 -1488 -91 -1565 -850 -20 -197 18 -404 106 -579 71 -141 189 -287 305 -375 27 -20 49 -40 49 -43 0 -3 -33 -18 -73 -34 -270 -109 -540 -321 -729 -571 -109 -145 -213 -349 -264 -520 -15 -52 -31 -95 -34 -95 -8 0 -122 148 -179 233 -63 94 -174 310 -219 425 -78 198 -127 427 -144 675 -52 717 271 1445 839 1898 459 366 1041 542 1618 489z m5 -860 c257 -73 458 -274 536 -535 35 -119 37 -289 6 -406 -93 -347 -395 -579 -752 -579 -357 0 -659 232 -752 579 -31 117 -29 287 6 406 88 296 316 497 636 559 58 11 247 -3 320 -24z m-5 -1851 c310 -40 584 -178 821 -414 178 -178 290 -358 362 -585 26 -81 67 -271 59 -275 -1 -1 -31 -24 -67 -52 -308 -240 -679 -394 -1095 -454 -116 -17 -454 -17 -570 0 -416 60 -787 214 -1095 454 -36 28 -66 51 -67 52 -2 1 4 39 12 84 91 517 461 950 961 1124 221 77 431 98 679 66z"
       id="path19" />
  </g>
  <path
     style="fill:#ffffff;stroke:none;stroke-width:0.844885"
     d="M 317.25413,680.89722 C 282.36461,678.00715 265.6464,674.81198 237.58848,665.67157 186.59614,649.05981 143.81892,623.59317 106.71793,587.76013 48.966735,531.98262 15.131374,466.03942 3.2526795,386.11221 2.0021314,377.69775 1.7422394,370.15458 1.7244252,341.75578 1.7018191,305.71797 1.9802583,301.76738 6.0416338,280.50165 17.026604,222.98337 39.397635,174.12787 75.704216,128.3674 86.645895,114.5766 114.17396,86.99114 128,75.962575 179.17491,35.142067 237.77964,10.550002 302.0462,2.9282683 327.52304,-0.09317192 371.72285,0.93271974 396.66384,5.1243736 468.82296,17.25164 532.83219,50.717698 584.25863,103.20488 c 52.44039,53.52205 83.64088,116.94779 95.11283,193.34958 1.71749,11.43824 2.5229,57.56105 1.3057,74.77227 -3.30682,46.75861 -20.74258,100.77533 -46.36166,143.63037 -41.69966,69.75428 -108.27369,123.75987 -183.99207,149.25637 -19.9141,6.70564 -42.80757,12.05658 -64.63366,15.10696 -9.23169,1.2902 -58.2585,2.4198 -68.43564,1.57679 z m 45.43618,-39.19682 c 57.35267,-2.91976 118.58645,-26.64581 166.84104,-64.64533 5.90428,-4.6495 5.95056,-5.07426 2.3341,-21.41936 -8.71076,-39.36946 -23.17195,-66.49458 -50.68875,-95.07787 -26.25723,-27.27488 -57.08986,-45.58129 -91.14207,-54.11422 -17.17759,-4.30442 -25.11806,-5.12411 -49.54618,-5.11464 -20.03344,0.008 -24.0043,0.23717 -32.60202,1.88352 -62.68919,12.00408 -113.99074,50.83519 -141.49168,107.09773 -8.90984,18.22811 -16.12768,41.60311 -17.80669,57.66697 l -0.52841,5.05546 7.92397,6.15426 c 39.01963,30.30516 84.40003,50.12783 136.30914,59.54139 18.4928,3.3536 42.77016,4.37856 70.39755,2.97209 z M 118.34102,524.87623 c 12.98671,-39.12273 31.35788,-68.95232 59.21652,-96.1509 22.25148,-21.72427 46.93254,-38.28955 73.58437,-49.3879 5.22773,-2.17693 9.50495,-4.25295 9.50495,-4.61337 0,-0.36042 -3.60575,-3.58529 -8.01279,-7.16637 -13.95478,-11.33943 -27.02892,-26.97178 -36.2281,-43.31689 -22.60899,-40.17163 -23.90278,-88.41805 -3.50729,-130.78911 19.38692,-40.27577 57.11166,-69.1952 102.19519,-78.34188 7.97313,-1.61762 11.9412,-1.88986 27.08435,-1.85819 15.04791,0.0315 19.04684,0.32037 26.33028,1.90225 25.34549,5.50472 49.40379,17.58528 68.30632,34.29912 23.00826,20.34416 39.60033,50.47762 45.32575,82.31767 2.26021,12.56942 2.46747,33.86089 0.4457,45.78394 -3.64352,21.48698 -13.55225,45.53371 -25.1279,60.981 -5.58086,7.44745 -23.18959,25.72448 -30.02111,31.16048 -2.9796,2.37094 -5.40845,4.56321 -5.39743,4.87171 0.011,0.30851 4.01439,2.23324 8.8964,4.2772 11.33726,4.74656 27.30057,13.448 39.73739,21.66045 26.42263,17.44776 47.3285,38.48311 65.04552,65.44836 13.18855,20.07293 20.34589,34.67851 27.91313,56.96071 2.53144,7.454 4.9161,13.86621 5.29924,14.24934 1.44822,1.44822 17.18049,-18.91889 28.21252,-36.52413 31.06839,-49.57987 46.4855,-106.44575 45.13713,-166.4879 C 641.24571,288.04428 631.95945,249.94595 611.69963,208.68647 588.93044,162.31662 555.80637,123.38023 514.81371,94.799892 475.21959,67.194631 427.74315,48.667806 379.99672,42.189995 c -21.06824,-2.858352 -55.24505,-2.841673 -77.10563,0.03763 -55.15682,7.264817 -106.92646,29.478902 -151.82296,65.146445 -10.56004,8.38931 -35.08554,32.92846 -43.66975,43.69406 -38.584733,48.38973 -61.415581,105.13109 -66.482398,165.22827 -1.659943,19.68846 -0.26332,53.41449 3.039087,73.38874 4.840424,29.27678 12.119484,53.2621 23.402396,77.11354 10.322179,21.8205 20.583106,39.00272 33.552635,56.18482 7.94252,10.5223 11.85481,14.90199 12.79343,14.3219 0.35403,-0.21881 2.44091,-5.81194 4.63749,-12.42917 z M 360.39867,357.32537 c 37.07171,-7.03239 66.21198,-31.81627 78.88793,-67.09439 3.39363,-9.44475 4.79009,-17.00944 5.30636,-28.74491 0.86532,-19.6695 -2.37227,-35.64555 -10.52878,-51.95472 -14.94871,-29.89035 -43.44977,-51.25232 -74.36188,-55.73532 -14.76168,-2.1408 -27.67987,-2.46084 -35.24205,-0.8731 -40.4911,8.50142 -69.23685,33.25625 -81.46049,70.15088 -6.92659,20.90658 -6.94568,46.33849 -0.0494,65.87669 12.64228,35.81768 40.43471,60.21591 77.49402,68.02992 9.68657,2.04242 30.07789,2.21848 39.95433,0.34495 z"
     id="path961"
     transform="scale(0.75)" />
</svg>
