<?xml version="1.0" encoding="UTF-8" standalone="no"?>
<svg
   version="1.0"
   width="92.000000pt"
   height="92.000000pt"
   viewBox="0 0 92.000000 92.000000"
   preserveAspectRatio="xMidYMid meet"
   id="svg6"
   sodipodi:docname="user_ink.svg"
   inkscape:version="1.1.2 (b8e25be833, 2022-02-05)"
   xmlns:inkscape="http://www.inkscape.org/namespaces/inkscape"
   xmlns:sodipodi="http://sodipodi.sourceforge.net/DTD/sodipodi-0.dtd"
   xmlns="http://www.w3.org/2000/svg"
   xmlns:svg="http://www.w3.org/2000/svg">
  <defs
     id="defs10" />
  <sodipodi:namedview
     id="namedview8"
     pagecolor="#ffffff"
     bordercolor="#666666"
     borderopacity="1.0"
     inkscape:pageshadow="2"
     inkscape:pageopacity="0.0"
     inkscape:pagecheckerboard="0"
     inkscape:document-units="pt"
     showgrid="false"
     inkscape:zoom="4.469228"
     inkscape:cx="61.308127"
     inkscape:cy="61.308127"
     inkscape:window-width="1920"
     inkscape:window-height="1017"
     inkscape:window-x="-8"
     inkscape:window-y="-8"
     inkscape:window-maximized="1"
     inkscape:current-layer="layer1" />
  <g
     inkscape:groupmode="layer"
     id="layer2"
     inkscape:label="Layer 2"
     style="display:inline">
    <rect
       style="fill:#b3b3b3;stroke-width:0.75"
       id="rect1053"
       width="92.633446"
       height="93.136887"
       x="-0.33562839"
       y="-8.4861416e-09" />
  </g>
  <g
     inkscape:groupmode="layer"
     id="layer1"
     inkscape:label="Layer 1"
     style="display:inline">
    <g
       transform="matrix(0.1,0,0,-0.1,0.8214886,94.184638)"
       fill="#000000"
       stroke="none"
       id="g4"
       style="fill:#ffffff">
      <path
         d="M 380,718 C 276,662 257,509 346,435 l 24,-21 -44,-31 C 268,342 229,282 222,225 c -4,-37 -2,-45 12,-45 10,0 16,8 16,23 1,33 34,99 66,129 67,63 157,74 242,32 58,-29 98,-84 109,-148 7,-45 33,-49 33,-6 0,65 -58,152 -124,187 l -29,15 26,21 c 56,48 74,143 40,214 -38,80 -151,115 -233,71 z m 157,-38 c 62,-37 82,-124 43,-187 -51,-85 -189,-85 -240,0 -57,93 9,207 120,207 27,0 58,-8 77,-20 z"
         id="path2"
         style="fill:#ffffff" />
    </g>
  </g>
</svg>
